<?xml version="1.0" encoding="UTF-8" standalone="no"?>
<!-- Generator: Adobe Illustrator 19.1.0, SVG Export Plug-In . SVG Version: 6.00 Build 0)  -->

<svg
   xmlns:dc="http://purl.org/dc/elements/1.1/"
   xmlns:cc="http://creativecommons.org/ns#"
   xmlns:rdf="http://www.w3.org/1999/02/22-rdf-syntax-ns#"
   xmlns:svg="http://www.w3.org/2000/svg"
   xmlns="http://www.w3.org/2000/svg"
   xmlns:sodipodi="http://sodipodi.sourceforge.net/DTD/sodipodi-0.dtd"
   xmlns:inkscape="http://www.inkscape.org/namespaces/inkscape"
   version="1.1"
   id="Layer_1"
   x="0px"
   y="0px"
   viewBox="-1076.1 758.6 202.1 43.6"
   xml:space="preserve"
   inkscape:version="0.91 r13725"
   sodipodi:docname="browserstack.svg"
   style="enable-background:new -1076.1 758.6 202.1 43.6;"><metadata
     id="metadata40"><rdf:RDF><cc:Work
         rdf:about=""><dc:format>image/svg+xml</dc:format><dc:type
           rdf:resource="http://purl.org/dc/dcmitype/StillImage" /><dc:title></dc:title></cc:Work></rdf:RDF></metadata><defs
     id="defs38" /><sodipodi:namedview
     pagecolor="#ffffff"
     bordercolor="#666666"
     borderopacity="1"
     objecttolerance="10"
     gridtolerance="10"
     guidetolerance="10"
     inkscape:pageopacity="0"
     inkscape:pageshadow="2"
     inkscape:window-width="1920"
     inkscape:window-height="1050"
     id="namedview36"
     showgrid="false"
     inkscape:zoom="6.86788697"
     inkscape:cx="59.98229411"
     inkscape:cy="39.57376302"
     inkscape:window-x="0"
     inkscape:window-y="30"
     inkscape:window-maximized="1"
     inkscape:current-layer="g5" /><style
     type="text/css"
     id="style3">
	.st0{fill:#F4B960;}
	.st1{fill:#E66F32;}
	.st2{fill:#E43C41;}
	.st3{fill:#BDD041;}
	.st4{fill:#6DB54C;}
	.st5{fill:#AEDAE6;}
	.st6{fill:#56B8DE;}
	.st7{fill:#00B1D5;}
	.st8{fill:url(#XMLID_2_);}
	.st9{fill:#221F1F;}
	.st10{fill:#FFFFFF;}
</style><g
     id="g5"
     transform="matrix(0.4998374642,0,0,0.4998374642,-538.2249049,380.2803314)"><g
       id="XMLID_57_"><circle
         id="XMLID_68_"
         class="st0"
         cx="-1054.300049"
         cy="780.4000244"
         r="21.70000076"
         style="fill:#f4b960" /><circle
         id="XMLID_67_"
         class="st1"
         cx="-1056.5"
         cy="778.2000122"
         r="19.60000038"
         style="fill:#e66f32" /><circle
         id="XMLID_66_"
         class="st2"
         cx="-1053.800049"
         cy="775.7000122"
         r="17"
         style="fill:#e43c41" /><circle
         id="XMLID_65_"
         class="st3"
         cx="-1052.5"
         cy="777"
         r="15.60000038"
         style="fill:#bdd041" /><circle
         id="XMLID_64_"
         class="st4"
         cx="-1053.599976"
         cy="778.2000122"
         r="14.5"
         style="fill:#6db54c" /><circle
         id="XMLID_63_"
         class="st5"
         cx="-1055.900024"
         cy="775.7999878"
         r="12.10000038"
         style="fill:#aedae6" /><circle
         id="XMLID_62_"
         class="st6"
         cx="-1054"
         cy="773.7999878"
         r="10.19999981"
         style="fill:#56b8de" /><circle
         id="XMLID_61_"
         class="st7"
         cx="-1052.699951"
         cy="775.2000122"
         r="8.899999619"
         style="fill:#00b1d5" /><radialGradient
         id="XMLID_2_"
         cx="-1053.988037"
         cy="-164.5"
         r="7.660999775"
         gradientTransform="matrix(1,0,0,-1,0,611.9999)"
         gradientUnits="userSpaceOnUse"><stop
           offset="0"
           style="stop-color:#797979"
           id="stop17" /><stop
           offset="1"
           style="stop-color:#4C4C4C"
           id="stop19" /></radialGradient><circle
         id="XMLID_60_"
         class="st8"
         cx="-1054"
         cy="776.4000244"
         r="7.599999905"
         style="fill:url(#XMLID_2_)" /><circle
         id="XMLID_59_"
         class="st9"
         cx="-1054"
         cy="776.4000244"
         r="7.599999905"
         style="fill:#221f1f" /><ellipse
         id="XMLID_58_"
         transform="matrix(0.4094,-0.9124,0.9124,0.4094,-1326.5503,-501.9048)"
         class="st10"
         cx="-1050.900024"
         cy="773.5999756"
         rx="2.400000095"
         ry="1.5"
         style="fill:#ffffff" /></g><path
       id="XMLID_53_"
       class="st10"
       d="m -1025.5,772.2 c 0,-0.1 0.1,-0.3 0.3,-0.3 l 6.9,0 c 3.9,0 5.7,1.8 5.7,4.5 0,2 -1,3 -2.2,3.6 l 0,0.1 c 1.1,0.4 2.5,1.8 2.5,3.9 0,3.4 -2.3,5 -6.3,5 l -6.6,0 c -0.1,0 -0.3,-0.1 -0.3,-0.3 0,0 0,-16.5 0,-16.5 z m 7.1,6.8 c 1.6,0 2.6,-0.9 2.6,-2.2 0,-1.4 -1,-2.3 -2.6,-2.3 l -3.7,0 c -0.1,0 -0.1,0.1 -0.1,0.1 l 0,4.2 c 0,0.1 0.1,0.1 0.1,0.1 -0.1,0.1 3.7,0.1 3.7,0.1 z m -3.8,7.2 3.9,0 c 1.8,0 2.8,-0.9 2.8,-2.4 0,-1.5 -1,-2.4 -2.8,-2.4 l -3.9,0 c -0.1,0 -0.1,0.1 -0.1,0.1 l 0,4.4 c -0.1,0.3 0.1,0.3 0.1,0.3 z"
       inkscape:connector-curvature="0"
       style="fill:#000000;fill-opacity:1" /><path
       id="XMLID_51_"
       class="st10"
       d="m -1010.1,788.8 c -0.1,0 -0.3,-0.1 -0.3,-0.3 l 0,-11.6 c 0,-0.1 0.1,-0.3 0.3,-0.3 l 2.5,0 c 0.1,0 0.3,0.1 0.3,0.3 l 0,1 0.1,0 c 0.6,-0.9 1.8,-1.6 3.4,-1.6 1,0 2.1,0.4 2.7,1 0.1,0.1 0.1,0.3 0.1,0.3 l -1.4,1.7 c -0.1,0.1 -0.3,0.1 -0.4,0.1 -0.6,-0.3 -1.2,-0.6 -2,-0.6 -1.7,0 -2.5,1.1 -2.5,3.1 l 0,6.5 c 0,0.1 -0.1,0.3 -0.3,0.3 l -2.5,0.1 0,0 z"
       inkscape:connector-curvature="0"
       style="fill:#000000;fill-opacity:1" /><path
       id="XMLID_48_"
       class="st10"
       d="m -1000.6,785.8 c -0.3,-0.8 -0.5,-1.6 -0.5,-3 0,-1.4 0.1,-2.2 0.5,-3 0.8,-2.2 2.7,-3.3 5.4,-3.3 2.7,0 4.6,1.2 5.4,3.3 0.3,0.8 0.5,1.6 0.5,3 0,1.4 -0.1,2.2 -0.5,3 -0.8,2.2 -2.7,3.3 -5.4,3.3 -2.7,0 -4.7,-1.1 -5.4,-3.3 z m 7.9,-0.7 c 0.3,-0.6 0.3,-1.2 0.3,-2.2 0,-1 -0.1,-1.6 -0.3,-2.2 -0.4,-1 -1.2,-1.6 -2.5,-1.6 -1.2,0 -2.1,0.6 -2.5,1.6 -0.3,0.7 -0.3,1.2 -0.3,2.2 0,1 0.1,1.6 0.3,2.2 0.4,1 1.2,1.6 2.5,1.6 1.2,0 2,-0.6 2.5,-1.6 z"
       inkscape:connector-curvature="0"
       style="fill:#000000;fill-opacity:1" /><path
       id="XMLID_46_"
       class="st10"
       d="m -976.3,788.8 c -0.1,0 -0.3,-0.1 -0.3,-0.3 l -2.5,-7.8 -0.1,0 -2.5,7.7 c -0.1,0.1 -0.1,0.3 -0.3,0.3 l -2.2,0 c -0.1,0 -0.3,-0.1 -0.3,-0.3 l -4.1,-11.6 c -0.1,-0.1 0.1,-0.3 0.2,-0.3 l 2.6,0 c 0.2,0 0.3,0.1 0.3,0.3 l 2.5,8 0.1,0 2.5,-8 c 0.1,-0.1 0.2,-0.3 0.3,-0.3 l 2,0 c 0.1,0 0.3,0.1 0.3,0.3 l 2.6,8 0.1,0 2.4,-8 c 0.1,-0.2 0.1,-0.3 0.3,-0.3 l 2.6,0 c 0.1,0 0.3,0.1 0.2,0.3 l -4,11.6 c -0.1,0.1 -0.1,0.3 -0.3,0.3 l -2.4,0.1 0,0 z"
       inkscape:connector-curvature="0"
       style="fill:#000000;fill-opacity:1" /><path
       id="XMLID_44_"
       class="st10"
       d="m -969.1,787.2 c -0.1,-0.1 -0.1,-0.3 0,-0.3 l 1.6,-1.5 c 0.1,-0.1 0.3,-0.1 0.4,0 0.9,0.8 2.5,1.4 3.9,1.4 1.6,0 2.4,-0.6 2.4,-1.4 0,-0.7 -0.5,-1.2 -2.2,-1.3 l -1.4,-0.1 c -2.6,-0.3 -4,-1.5 -4,-3.5 0,-2.3 1.8,-3.9 5,-3.9 2,0 3.7,0.6 4.9,1.4 0.1,0.1 0.1,0.3 0.1,0.3 l -1.3,1.4 c -0.1,0.1 -0.3,0.1 -0.4,0.1 -0.8,-0.5 -2.2,-1 -3.4,-1 -1.3,0 -2,0.5 -2,1.3 0,0.7 0.5,1.1 2.2,1.3 l 1.4,0.1 c 2.7,0.3 4,1.6 4,3.5 0,2.4 -1.9,4.1 -5.5,4.1 -2.7,0.1 -4.6,-0.9 -5.7,-1.9 z"
       inkscape:connector-curvature="0"
       style="fill:#000000;fill-opacity:1" /><path
       id="XMLID_41_"
       class="st10"
       d="m -955.9,785.8 c -0.3,-0.8 -0.5,-1.7 -0.5,-3 0,-1.3 0.1,-2.2 0.5,-3 0.8,-2.2 2.7,-3.3 5.4,-3.3 2.7,0 4.6,1.3 5.4,3.3 0.3,0.8 0.5,1.7 0.5,3.7 0,0.1 -0.1,0.3 -0.3,0.3 l -8.2,0 c -0.1,0 -0.1,0.1 -0.1,0.1 0,0.3 0.1,0.7 0.2,0.9 0.5,1.2 1.4,1.8 2.9,1.8 1.5,0 2.4,-0.5 3.1,-1.1 0.1,-0.1 0.3,-0.1 0.5,-0.1 l 1.6,1.3 c 0.1,0.1 0.1,0.3 0.1,0.3 -1.1,1.2 -3,2.1 -5.4,2.1 -3,0.1 -5,-1.1 -5.7,-3.3 z m 7.9,-5.4 c -0.3,-1 -1.3,-1.6 -2.5,-1.6 -1.2,0 -2.2,0.6 -2.6,1.6 -0.1,0.3 -0.1,0.6 -0.1,1 0,0.1 0.1,0.1 0.1,0.1 l 5.2,0 c 0.1,0 0.1,-0.1 0.1,-0.1 -0.1,-0.3 -0.1,-0.7 -0.2,-1 z"
       inkscape:connector-curvature="0"
       style="fill:#000000;fill-opacity:1" /><path
       id="XMLID_39_"
       class="st10"
       d="m -942.6,788.8 c -0.1,0 -0.3,-0.1 -0.3,-0.3 l 0,-11.6 c 0,-0.1 0.1,-0.3 0.3,-0.3 l 2.5,0 c 0.1,0 0.3,0.1 0.3,0.3 l 0,1 0.1,0 c 0.6,-0.9 1.8,-1.6 3.4,-1.6 1,0 2.1,0.4 2.7,1 0.1,0.1 0.1,0.3 0.1,0.3 l -1.4,1.7 c -0.1,0.1 -0.3,0.1 -0.4,0.1 -0.6,-0.3 -1.2,-0.6 -2,-0.6 -1.7,0 -2.5,1.1 -2.5,3.1 l 0,6.5 c 0,0.1 -0.1,0.3 -0.3,0.3 l -2.5,0.1 0,0 z"
       inkscape:connector-curvature="0"
       style="fill:#000000;fill-opacity:1" /><path
       id="XMLID_37_"
       class="st10"
       d="m -933.1,787 c -0.1,-0.1 -0.1,-0.3 -0.1,-0.4 l 1.7,-1.8 c 0.1,-0.1 0.3,-0.1 0.4,-0.1 1.2,0.9 3,1.8 5,1.8 2.2,0 3.5,-1 3.5,-2.5 0,-1.2 -0.8,-2 -3.3,-2.4 l -1,-0.1 c -3.5,-0.5 -5.5,-2 -5.5,-4.8 0,-3.1 2.5,-5.2 6.2,-5.2 2.3,0 4.5,0.7 5.9,1.7 0.1,0.1 0.1,0.2 0.1,0.3 l -1.3,1.8 c -0.1,0.1 -0.3,0.1 -0.4,0.1 -1.5,-0.9 -2.9,-1.3 -4.4,-1.3 -1.9,0 -2.9,0.9 -2.9,2.3 0,1.2 0.9,2 3.4,2.3 l 1,0.1 c 3.5,0.5 5.5,2 5.5,5 0,3 -2.4,5.3 -6.9,5.3 -2.9,0.1 -5.5,-0.9 -6.9,-2.1 z"
       inkscape:connector-curvature="0"
       style="fill:#000000;fill-opacity:1" /><path
       id="XMLID_35_"
       class="st10"
       d="m -913.8,789.1 c -2.6,0 -3.7,-1.2 -3.7,-3.5 l 0,-6.4 c 0,-0.1 -0.1,-0.1 -0.1,-0.1 l -0.8,0 c -0.1,0 -0.3,-0.1 -0.3,-0.3 l 0,-1.7 c 0,-0.1 0.1,-0.3 0.3,-0.3 l 0.8,0 c 0.1,0 0.1,-0.1 0.1,-0.1 l 0,-3.3 c 0,-0.1 0.1,-0.3 0.3,-0.3 l 2.5,0 c 0.1,0 0.3,0.1 0.3,0.3 l 0,3.3 c 0,0.1 0.1,0.1 0.1,0.1 l 1.8,0 c 0.1,0 0.3,0.1 0.3,0.3 l 0,1.7 c 0,0.1 -0.1,0.3 -0.3,0.3 l -1.8,0 c -0.1,0 -0.1,0.1 -0.1,0.1 l 0,6.3 c 0,0.8 0.4,1.1 1.2,1.1 l 0.7,0 c 0.1,0 0.3,0.1 0.3,0.3 l 0,2 c 0,0.1 -0.1,0.3 -0.3,0.3 l -1.3,-0.1 0,0 z"
       inkscape:connector-curvature="0"
       style="fill:#000000;fill-opacity:1" /><path
       id="XMLID_32_"
       class="st10"
       d="m -902.3,788.8 c -0.1,0 -0.3,-0.1 -0.3,-0.3 l 0,-0.9 0,0 c -0.6,0.8 -1.8,1.4 -3.7,1.4 -2.4,0 -4.4,-1.1 -4.4,-3.7 0,-2.6 2,-3.9 5.2,-3.9 l 2.6,0 c 0.1,0 0.1,-0.1 0.1,-0.1 l 0,-0.6 c 0,-1.4 -0.7,-2 -2.9,-2 -1.4,0 -2.4,0.4 -3,0.8 -0.1,0.1 -0.3,0.1 -0.4,-0.1 l -1,-1.6 c -0.1,-0.1 -0.1,-0.3 0.1,-0.3 1,-0.7 2.5,-1.2 4.6,-1.2 4,0 5.4,1.3 5.4,4.2 l 0,7.8 c 0,0.1 -0.1,0.3 -0.3,0.3 l -2,0.2 0,0 z m -0.3,-4 0,-0.9 c 0,-0.1 -0.1,-0.1 -0.1,-0.1 l -2.2,0 c -2,0 -2.8,0.5 -2.8,1.6 0,1 0.8,1.5 2.3,1.5 1.7,-0.1 2.8,-0.7 2.8,-2.1 z"
       inkscape:connector-curvature="0"
       style="fill:#000000;fill-opacity:1" /><path
       id="XMLID_30_"
       class="st10"
       d="m -897.4,785.8 c -0.3,-0.8 -0.5,-1.7 -0.5,-3 0,-1.3 0.1,-2.2 0.5,-3 0.8,-2.2 2.8,-3.3 5.4,-3.3 2,0 3.5,0.7 4.5,1.9 0.1,0.1 0.1,0.3 -0.1,0.3 l -1.7,1.4 c -0.1,0.1 -0.3,0.1 -0.4,-0.1 -0.7,-0.7 -1.3,-1 -2.4,-1 -1.2,0 -2.1,0.5 -2.5,1.6 -0.3,0.6 -0.3,1.3 -0.3,2.2 0,0.9 0.1,1.6 0.3,2.3 0.4,1 1.3,1.6 2.5,1.6 1.1,0 1.8,-0.4 2.4,-1 0.1,-0.1 0.3,-0.1 0.4,-0.1 l 1.7,1.4 c 0.1,0.1 0.1,0.3 0.1,0.3 -1,1.1 -2.6,1.8 -4.5,1.8 -2.6,0.1 -4.6,-1.1 -5.4,-3.3 z"
       inkscape:connector-curvature="0"
       style="fill:#000000;fill-opacity:1" /><path
       id="XMLID_28_"
       class="st10"
       d="m -876.9,788.8 c -0.2,0 -0.3,-0.1 -0.5,-0.3 l -3.3,-5 -1.8,1.9 0,3.1 c 0,0.1 -0.1,0.3 -0.3,0.3 l -2.5,0 c -0.1,0 -0.3,-0.1 -0.3,-0.3 l 0,-16.5 c 0,-0.1 0.1,-0.3 0.3,-0.3 l 2.5,0 c 0.1,0 0.3,0.1 0.3,0.3 l 0,9.8 4.5,-4.8 c 0.1,-0.2 0.3,-0.3 0.5,-0.3 l 2.8,0 c 0.1,0 0.3,0.1 0.1,0.3 l -4.2,4.4 4.7,7.2 c 0.1,0.1 0.1,0.3 -0.1,0.3 l -2.7,-0.1 0,0 z"
       inkscape:connector-curvature="0"
       style="fill:#000000;fill-opacity:1" /></g></svg>