<?xml version="1.0" encoding="UTF-8" standalone="no"?>
<svg
   xmlns:dc="http://purl.org/dc/elements/1.1/"
   xmlns:cc="http://creativecommons.org/ns#"
   xmlns:rdf="http://www.w3.org/1999/02/22-rdf-syntax-ns#"
   xmlns:svg="http://www.w3.org/2000/svg"
   xmlns="http://www.w3.org/2000/svg"
   xmlns:sodipodi="http://sodipodi.sourceforge.net/DTD/sodipodi-0.dtd"
   xmlns:inkscape="http://www.inkscape.org/namespaces/inkscape"
   fill="#000000"
   version="1.1"
   x="0px"
   y="0px"
   viewBox="0 0 100 100"
   id="svg2"
   inkscape:version="0.91 r13725"
   sodipodi:docname="document.svg">
  <metadata
     id="metadata22">
    <rdf:RDF>
      <cc:Work
         rdf:about="">
        <dc:format>image/svg+xml</dc:format>
        <dc:type
           rdf:resource="http://purl.org/dc/dcmitype/StillImage" />
        <dc:title></dc:title>
      </cc:Work>
    </rdf:RDF>
  </metadata>
  <defs
     id="defs20" />
  <sodipodi:namedview
     pagecolor="#ffffff"
     bordercolor="#666666"
     borderopacity="1"
     objecttolerance="10"
     gridtolerance="10"
     guidetolerance="10"
     inkscape:pageopacity="0"
     inkscape:pageshadow="2"
     inkscape:window-width="1920"
     inkscape:window-height="1050"
     id="namedview18"
     showgrid="false"
     inkscape:zoom="3.445000004"
     inkscape:cx="55.84054299"
     inkscape:cy="44.50674431"
     inkscape:window-x="0"
     inkscape:window-y="30"
     inkscape:window-maximized="1"
     inkscape:current-layer="svg2" />
  <g
     transform="matrix(0.9090905378,0,0,0.9090900135,4.545473084,-861.2374265)"
     id="g4">
    <path
       style="color:#000000;text-indent:0;text-transform:none;direction:ltr;block-progression:tb;baseline-shift:baseline;display:inline;overflow:visible;visibility:visible;fill:#000000;fill-opacity:1;fill-rule:evenodd;stroke:none;marker:none;enable-background:accumulate"
       d="m 7.7812139,958.36224 c -0.9723,0.10699 -1.7871,1.02189 -1.7812,2 l 0,83.99996 c 0,1.0472 0.9528,2 2,2 l 17.8750041,0 66.125,0 c 1.0472,0 2,-0.9528 2,-2 l 0,-83.99996 c 0,-1.0472 -0.9528,-2 -2,-2 -29.3496,-2.8e-4 -59.0909,-1e-5 -84.2188041,0 z m 2.2188001,4 13.875004,0 0,79.99996 -13.875004,0 z m 17.875004,0 4.125,0 0,27.28125 c -0.01,0.76586 0.4654,1.5162 1.1607,1.83758 0.6952,0.32139 1.5738,0.1963 2.1517,-0.30633 l 7.9063,-6.9375 7.9063,6.9375 c 0.5779,0.50263 1.4565,0.62772 2.1517,0.30633 0.6953,-0.32138 1.1692,-1.07172 1.1607,-1.83758 l 0,-27.28125 35.5626,0 0,79.99996 -62.125,0 z m 8.125,0 14.4374,0 0,22.875 -5.9062,-5.1875 c -0.7202,-0.62636 -1.9048,-0.62636 -2.625,0 l -5.9062,5.1875 z"
       visibility="visible"
       display="inline"
       overflow="visible"
       id="path6"
       inkscape:connector-curvature="0" />
    <path
       style="color:#000000;text-indent:0;text-transform:none;direction:ltr;block-progression:tb;baseline-shift:baseline;display:inline;overflow:visible;visibility:visible;fill:#000000;fill-opacity:1;fill-rule:evenodd;stroke:none;marker:none;enable-background:accumulate"
       d="m 60.618418,988.51849 a 2.000005,2.000005 0 1 0 0,3.99969 l 19.8231,0 a 2.000005,2.000005 0 1 0 0,-3.99969 l -19.8231,0 z"
       visibility="visible"
       display="inline"
       overflow="visible"
       id="path8"
       inkscape:connector-curvature="0" />
    <path
       style="color:#000000;text-indent:0;text-transform:none;direction:ltr;block-progression:tb;baseline-shift:baseline;display:inline;overflow:visible;visibility:visible;fill:#000000;fill-opacity:1;fill-rule:evenodd;stroke:none;marker:none;enable-background:accumulate"
       d="m 60.618418,978.90224 a 2.000005,2.000005 0 1 0 0,3.99969 l 19.8231,0 a 2.000005,2.000005 0 1 0 0,-3.99969 l -19.8231,0 z"
       visibility="visible"
       display="inline"
       overflow="visible"
       id="path10"
       inkscape:connector-curvature="0" />
    <path
       style="color:#000000;text-indent:0;text-transform:none;direction:ltr;block-progression:tb;baseline-shift:baseline;display:inline;overflow:visible;visibility:visible;fill:#000000;fill-opacity:1;fill-rule:evenodd;stroke:none;marker:none;enable-background:accumulate"
       d="m 36.618118,998.25474 a 2.000005,2.000005 0 1 0 0,3.99966 l 43.8234,0 a 2.000005,2.000005 0 1 0 0,-3.99966 l -43.8234,0 z"
       visibility="visible"
       display="inline"
       overflow="visible"
       id="path12"
       inkscape:connector-curvature="0" />
    <path
       style="color:#000000;text-indent:0;text-transform:none;direction:ltr;block-progression:tb;baseline-shift:baseline;display:inline;overflow:visible;visibility:visible;fill:#000000;fill-opacity:1;fill-rule:evenodd;stroke:none;marker:none;enable-background:accumulate"
       d="m 36.618118,1008.1813 a 2.000005,2.000005 0 1 0 0,3.9997 l 43.8234,0 a 2.000005,2.000005 0 1 0 0,-3.9997 l -43.8234,0 z"
       visibility="visible"
       display="inline"
       overflow="visible"
       id="path14"
       inkscape:connector-curvature="0" />
    <path
       style="color:#000000;text-indent:0;text-transform:none;direction:ltr;block-progression:tb;baseline-shift:baseline;display:inline;overflow:visible;visibility:visible;fill:#000000;fill-opacity:1;fill-rule:evenodd;stroke:none;marker:none;enable-background:accumulate"
       d="m 36.618118,1018.7891 a 2.000005,2.000005 0 1 0 0,3.9994 l 43.8234,0 a 2.000005,2.000005 0 1 0 0,-3.9994 l -43.8234,0 z"
       visibility="visible"
       display="inline"
       overflow="visible"
       id="path16"
       inkscape:connector-curvature="0" />
  </g>
</svg>
