<svg xmlns="http://www.w3.org/2000/svg" viewBox="0 0 100 100">
  <path d="M1621 4663c-5 0-9.4-2.7-11.5-7.3-1.3-3-2-6-2-9 0-12 9.7-21.5 21.5-21.6 3.6-9.8 13-16.3 23.5-16.3 12.5 0 23 9.3 24.8 21.5 1.3-.2 2.6-.4 4-.4 11 0 17.5 9.5 17.5 18.7 0 7.3-4.5 14.6-14.7 14.6h-63zm8.2-35c-10.3 0-18.6 8.4-18.6 18.7 0 2.7.5 5.3 1.6 7.7 1.7 3.6 5 5.7 9 5.7h63c8.5 0 11.6-6 11.6-11.5 0-7.7-5.5-15.7-14.6-15.7-1.5 0-3.2.3-4.8.7-.5 0-1 0-1.3-.2-.3-.3-.5-.7-.5-1-.8-11.6-10.5-20.6-22-20.6-9.6 0-18 6.2-21 15.3-.2.7-.8 1-1.5 1h-.8zM86 26.5v-2c0-2.2-1.8-4-4-4h-4.5c-2.2 0-4 1.8-4 4v2h-7v-2c0-2.2-1.8-4-4-4H58c-2.3 0-4 1.8-4 4v2h-6v25H45v-2c0-2-1.8-4-4-4h-4.6c-2.2 0-4 2-4 4v2h-7v-2c0-2-1.8-4-4-4h-4.5c-2.2 0-4 2-4 4v2H8.5v28h83v-53zm-9.5-2c0-.6.4-1 1-1H82c.6 0 1 .4 1 1v2h-6.5zm-19.6 0c0-.6.4-1 1-1h4.5c.5 0 1 .4 1 1v2H57zM35 49.5c0-.5.5-1 1-1h4.6c.5 0 1 .5 1 1v2h-6.6zm-19.5 0c0-.4.4-1 1-1h4.5c.5 0 1 .6 1 1v2h-6.5zm72.6 26.8H11.7V54.8h76.6zm-37-46.6h37v21.8h-37z"/>
</svg>
