<svg xmlns="http://www.w3.org/2000/svg" viewBox="0 0 48 48">
  <path d="M47.5 23L38 18.5V14a1 1 0 0 0-1-1H18a7 7 0 1 0-8 8v17a1 1 0 0 0 1 1h4a4 4 0 0 0 8 0h12a4 4 0 0 0 8 0h4a1 1 0 0 0 1-1V24a1 1 0 0 0-.5-1zM18 15h18v14H12v-8a7 7 0 0 0 6-6zM6 14a5 5 0 1 1 5 5 5 5 0 0 1-5-5zm13 26a2 2 0 1 1 2-2 2 2 0 0 1-2 2zm20 0a2 2 0 1 1 2-2 2 2 0 0 1-2 2zm7-10v7h-3a4 4 0 0 0-8 0H23a4 4 0 0 0-8 0h-3v-6h25a1 1 0 0 0 1-1v-9.4l8 4V30zM9 31a1 1 0 0 1-1 1H1a1 1 0 0 1 0-2h7a1 1 0 0 1 1 1zm0 3a1 1 0 0 1-1 1H3a1 1 0 0 1 0-2h5a1 1 0 0 1 1 1zm0 3a1 1 0 0 1-1 1H5a1 1 0 0 1 0-2h3a1 1 0 0 1 1 1zm4.7-24.7a1 1 0 0 1 0 1.4l-3 3a1 1 0 0 1-1.4 0l-1-1a1 1 0 0 1 1.4-1.4l.3.3 2.3-2.3a1 1 0 0 1 1.4 0z"/>
</svg>
